<mxfile host="app.diagrams.net" modified="2023-09-12T03:20:54.975Z" agent="Mozilla/5.0 (Windows NT 10.0; Win64; x64) AppleWebKit/537.36 (KHTML, like Gecko) Chrome/116.0.0.0 Safari/537.36 Edg/116.0.1938.76" etag="qFQLTWghHrJHaPI3KHWU" version="21.7.4" type="device">
  <diagram name="Halaman-1" id="y6-0NunJ63VzdJu596zN">
    <mxGraphModel dx="872" dy="481" grid="1" gridSize="10" guides="1" tooltips="1" connect="1" arrows="1" fold="1" page="1" pageScale="1" pageWidth="827" pageHeight="1169" math="0" shadow="0">
      <root>
        <mxCell id="0" />
        <mxCell id="1" parent="0" />
        <mxCell id="1yegsG9FxxA_bVlCOIYM-3" value="" style="edgeStyle=orthogonalEdgeStyle;rounded=0;orthogonalLoop=1;jettySize=auto;html=1;" parent="1" source="1yegsG9FxxA_bVlCOIYM-1" target="1yegsG9FxxA_bVlCOIYM-2" edge="1">
          <mxGeometry relative="1" as="geometry" />
        </mxCell>
        <mxCell id="1yegsG9FxxA_bVlCOIYM-1" value="Mulai" style="strokeWidth=2;html=1;shape=mxgraph.flowchart.terminator;whiteSpace=wrap;" parent="1" vertex="1">
          <mxGeometry x="380" y="50" width="66" height="40" as="geometry" />
        </mxCell>
        <mxCell id="1yegsG9FxxA_bVlCOIYM-13" value="" style="edgeStyle=orthogonalEdgeStyle;rounded=0;orthogonalLoop=1;jettySize=auto;html=1;" parent="1" source="1yegsG9FxxA_bVlCOIYM-2" target="1yegsG9FxxA_bVlCOIYM-12" edge="1">
          <mxGeometry relative="1" as="geometry" />
        </mxCell>
        <mxCell id="1yegsG9FxxA_bVlCOIYM-2" value="Pembeli memilih barang yang akan dibeli" style="rounded=0;whiteSpace=wrap;html=1;" parent="1" vertex="1">
          <mxGeometry x="353" y="120" width="120" height="60" as="geometry" />
        </mxCell>
        <mxCell id="1yegsG9FxxA_bVlCOIYM-17" value="" style="edgeStyle=orthogonalEdgeStyle;rounded=0;orthogonalLoop=1;jettySize=auto;html=1;" parent="1" source="1yegsG9FxxA_bVlCOIYM-12" target="1yegsG9FxxA_bVlCOIYM-16" edge="1">
          <mxGeometry relative="1" as="geometry" />
        </mxCell>
        <mxCell id="1yegsG9FxxA_bVlCOIYM-12" value="Pembeli melakukan transaksi ke kasir" style="whiteSpace=wrap;html=1;rounded=0;" parent="1" vertex="1">
          <mxGeometry x="353" y="220" width="120" height="60" as="geometry" />
        </mxCell>
        <mxCell id="1yegsG9FxxA_bVlCOIYM-19" value="" style="edgeStyle=orthogonalEdgeStyle;rounded=0;orthogonalLoop=1;jettySize=auto;html=1;" parent="1" source="1yegsG9FxxA_bVlCOIYM-16" target="1yegsG9FxxA_bVlCOIYM-18" edge="1">
          <mxGeometry relative="1" as="geometry" />
        </mxCell>
        <mxCell id="1yegsG9FxxA_bVlCOIYM-21" value="" style="edgeStyle=orthogonalEdgeStyle;rounded=0;orthogonalLoop=1;jettySize=auto;html=1;" parent="1" source="1yegsG9FxxA_bVlCOIYM-16" target="1yegsG9FxxA_bVlCOIYM-20" edge="1">
          <mxGeometry relative="1" as="geometry" />
        </mxCell>
        <mxCell id="1yegsG9FxxA_bVlCOIYM-16" value="&lt;font style=&quot;font-size: 11px;&quot;&gt;Apakah pembeli &lt;br&gt;seorang member?&lt;/font&gt;" style="rhombus;whiteSpace=wrap;html=1;" parent="1" vertex="1">
          <mxGeometry x="354" y="310" width="118" height="100" as="geometry" />
        </mxCell>
        <mxCell id="1yegsG9FxxA_bVlCOIYM-23" value="" style="edgeStyle=orthogonalEdgeStyle;rounded=0;orthogonalLoop=1;jettySize=auto;html=1;" parent="1" source="1yegsG9FxxA_bVlCOIYM-18" target="1yegsG9FxxA_bVlCOIYM-22" edge="1">
          <mxGeometry relative="1" as="geometry" />
        </mxCell>
        <mxCell id="1yegsG9FxxA_bVlCOIYM-18" value="Kasir input &lt;br&gt;harga member&lt;br&gt;Barang A = Rp 5000&lt;br&gt;Barang B = Rp 20000" style="shape=parallelogram;perimeter=parallelogramPerimeter;whiteSpace=wrap;html=1;fixedSize=1;" parent="1" vertex="1">
          <mxGeometry x="150" y="330" width="160" height="60" as="geometry" />
        </mxCell>
        <mxCell id="1yegsG9FxxA_bVlCOIYM-25" value="" style="edgeStyle=orthogonalEdgeStyle;rounded=0;orthogonalLoop=1;jettySize=auto;html=1;" parent="1" source="1yegsG9FxxA_bVlCOIYM-20" target="1yegsG9FxxA_bVlCOIYM-24" edge="1">
          <mxGeometry relative="1" as="geometry" />
        </mxCell>
        <mxCell id="1yegsG9FxxA_bVlCOIYM-20" value="Kasir input harga &lt;br&gt;non member&lt;br&gt;Barang A = Rp 15000&lt;br&gt;Barang B = Rp 70000" style="shape=parallelogram;perimeter=parallelogramPerimeter;whiteSpace=wrap;html=1;fixedSize=1;" parent="1" vertex="1">
          <mxGeometry x="520" y="330" width="160" height="60" as="geometry" />
        </mxCell>
        <mxCell id="1yegsG9FxxA_bVlCOIYM-27" value="" style="edgeStyle=orthogonalEdgeStyle;rounded=0;orthogonalLoop=1;jettySize=auto;html=1;" parent="1" source="1yegsG9FxxA_bVlCOIYM-22" target="1yegsG9FxxA_bVlCOIYM-26" edge="1">
          <mxGeometry relative="1" as="geometry" />
        </mxCell>
        <mxCell id="1yegsG9FxxA_bVlCOIYM-22" value="Total belanja diproses oleh sistem" style="whiteSpace=wrap;html=1;" parent="1" vertex="1">
          <mxGeometry x="170" y="430" width="120" height="60" as="geometry" />
        </mxCell>
        <mxCell id="1yegsG9FxxA_bVlCOIYM-31" value="" style="edgeStyle=orthogonalEdgeStyle;rounded=0;orthogonalLoop=1;jettySize=auto;html=1;" parent="1" source="1yegsG9FxxA_bVlCOIYM-24" target="1yegsG9FxxA_bVlCOIYM-30" edge="1">
          <mxGeometry relative="1" as="geometry" />
        </mxCell>
        <mxCell id="1yegsG9FxxA_bVlCOIYM-24" value="Total belanja diproses oleh sistem" style="whiteSpace=wrap;html=1;" parent="1" vertex="1">
          <mxGeometry x="540" y="420" width="120" height="60" as="geometry" />
        </mxCell>
        <mxCell id="1yegsG9FxxA_bVlCOIYM-29" value="" style="edgeStyle=orthogonalEdgeStyle;rounded=0;orthogonalLoop=1;jettySize=auto;html=1;" parent="1" source="1yegsG9FxxA_bVlCOIYM-26" target="1yegsG9FxxA_bVlCOIYM-28" edge="1">
          <mxGeometry relative="1" as="geometry" />
        </mxCell>
        <mxCell id="1yegsG9FxxA_bVlCOIYM-35" style="edgeStyle=orthogonalEdgeStyle;rounded=0;orthogonalLoop=1;jettySize=auto;html=1;entryX=0;entryY=0.5;entryDx=0;entryDy=0;" parent="1" source="1yegsG9FxxA_bVlCOIYM-26" target="1yegsG9FxxA_bVlCOIYM-38" edge="1">
          <mxGeometry relative="1" as="geometry">
            <mxPoint x="354" y="640.0000000000002" as="targetPoint" />
            <Array as="points">
              <mxPoint x="230" y="640" />
            </Array>
          </mxGeometry>
        </mxCell>
        <mxCell id="1yegsG9FxxA_bVlCOIYM-26" value="Apakah total &lt;br&gt;belanja &amp;gt;&lt;br&gt;Rp 150.000" style="rhombus;whiteSpace=wrap;html=1;" parent="1" vertex="1">
          <mxGeometry x="172.5" y="530" width="115" height="80" as="geometry" />
        </mxCell>
        <mxCell id="1yegsG9FxxA_bVlCOIYM-28" value="Mendapatkan diskon 10%" style="whiteSpace=wrap;html=1;" parent="1" vertex="1">
          <mxGeometry x="50" y="540" width="80" height="60" as="geometry" />
        </mxCell>
        <mxCell id="1yegsG9FxxA_bVlCOIYM-33" value="" style="edgeStyle=orthogonalEdgeStyle;rounded=0;orthogonalLoop=1;jettySize=auto;html=1;" parent="1" source="1yegsG9FxxA_bVlCOIYM-30" target="1yegsG9FxxA_bVlCOIYM-32" edge="1">
          <mxGeometry relative="1" as="geometry" />
        </mxCell>
        <mxCell id="1yegsG9FxxA_bVlCOIYM-36" style="edgeStyle=orthogonalEdgeStyle;rounded=0;orthogonalLoop=1;jettySize=auto;html=1;entryX=1;entryY=0.5;entryDx=0;entryDy=0;" parent="1" source="1yegsG9FxxA_bVlCOIYM-30" target="1yegsG9FxxA_bVlCOIYM-38" edge="1">
          <mxGeometry relative="1" as="geometry">
            <mxPoint x="474" y="640.0000000000002" as="targetPoint" />
            <Array as="points">
              <mxPoint x="600" y="640" />
            </Array>
          </mxGeometry>
        </mxCell>
        <mxCell id="1yegsG9FxxA_bVlCOIYM-30" value="Apakah total &lt;br&gt;belanja &amp;gt;&lt;br&gt;Rp 300.000" style="rhombus;whiteSpace=wrap;html=1;" parent="1" vertex="1">
          <mxGeometry x="542.5" y="530" width="115" height="80" as="geometry" />
        </mxCell>
        <mxCell id="1yegsG9FxxA_bVlCOIYM-32" value="Mendapatkan diskon 10%" style="whiteSpace=wrap;html=1;" parent="1" vertex="1">
          <mxGeometry x="700" y="540" width="80" height="60" as="geometry" />
        </mxCell>
        <mxCell id="1yegsG9FxxA_bVlCOIYM-40" value="" style="edgeStyle=orthogonalEdgeStyle;rounded=0;orthogonalLoop=1;jettySize=auto;html=1;" parent="1" source="1yegsG9FxxA_bVlCOIYM-38" target="1yegsG9FxxA_bVlCOIYM-39" edge="1">
          <mxGeometry relative="1" as="geometry" />
        </mxCell>
        <mxCell id="1yegsG9FxxA_bVlCOIYM-38" value="Total pembayaran&lt;br&gt;ditampilkan oleh&lt;br&gt;sistem" style="shape=parallelogram;perimeter=parallelogramPerimeter;whiteSpace=wrap;html=1;fixedSize=1;" parent="1" vertex="1">
          <mxGeometry x="345" y="610" width="137" height="60" as="geometry" />
        </mxCell>
        <mxCell id="1yegsG9FxxA_bVlCOIYM-42" value="" style="edgeStyle=orthogonalEdgeStyle;rounded=0;orthogonalLoop=1;jettySize=auto;html=1;entryX=0.5;entryY=0;entryDx=0;entryDy=0;" parent="1" source="1yegsG9FxxA_bVlCOIYM-39" target="bzbwZe6oU-pGhxdmffQD-1" edge="1">
          <mxGeometry relative="1" as="geometry">
            <mxPoint x="414" y="840" as="targetPoint" />
          </mxGeometry>
        </mxCell>
        <mxCell id="1yegsG9FxxA_bVlCOIYM-39" value="Pembeli melakukan pembayaran" style="whiteSpace=wrap;html=1;" parent="1" vertex="1">
          <mxGeometry x="354" y="710" width="120" height="60" as="geometry" />
        </mxCell>
        <mxCell id="1yegsG9FxxA_bVlCOIYM-41" value="Selesai" style="strokeWidth=2;html=1;shape=mxgraph.flowchart.terminator;whiteSpace=wrap;" parent="1" vertex="1">
          <mxGeometry x="381" y="910" width="66" height="40" as="geometry" />
        </mxCell>
        <mxCell id="1yegsG9FxxA_bVlCOIYM-44" value="YA" style="text;html=1;strokeColor=none;fillColor=none;align=center;verticalAlign=middle;whiteSpace=wrap;rounded=0;" parent="1" vertex="1">
          <mxGeometry x="310" y="330" width="60" height="30" as="geometry" />
        </mxCell>
        <mxCell id="1yegsG9FxxA_bVlCOIYM-45" value="TIDAK" style="text;html=1;strokeColor=none;fillColor=none;align=center;verticalAlign=middle;whiteSpace=wrap;rounded=0;" parent="1" vertex="1">
          <mxGeometry x="470" y="330" width="60" height="30" as="geometry" />
        </mxCell>
        <mxCell id="1yegsG9FxxA_bVlCOIYM-46" value="YA" style="text;html=1;strokeColor=none;fillColor=none;align=center;verticalAlign=middle;whiteSpace=wrap;rounded=0;" parent="1" vertex="1">
          <mxGeometry x="130" y="540" width="60" height="30" as="geometry" />
        </mxCell>
        <mxCell id="1yegsG9FxxA_bVlCOIYM-49" value="" style="endArrow=none;html=1;rounded=0;exitX=0.5;exitY=1;exitDx=0;exitDy=0;" parent="1" source="1yegsG9FxxA_bVlCOIYM-28" edge="1">
          <mxGeometry width="50" height="50" relative="1" as="geometry">
            <mxPoint x="460" y="590" as="sourcePoint" />
            <mxPoint x="230" y="640" as="targetPoint" />
            <Array as="points">
              <mxPoint x="90" y="640" />
            </Array>
          </mxGeometry>
        </mxCell>
        <mxCell id="1yegsG9FxxA_bVlCOIYM-50" value="" style="endArrow=none;html=1;rounded=0;exitX=0.5;exitY=1;exitDx=0;exitDy=0;" parent="1" source="1yegsG9FxxA_bVlCOIYM-32" edge="1">
          <mxGeometry width="50" height="50" relative="1" as="geometry">
            <mxPoint x="620" y="630" as="sourcePoint" />
            <mxPoint x="600" y="640" as="targetPoint" />
            <Array as="points">
              <mxPoint x="740" y="640" />
            </Array>
          </mxGeometry>
        </mxCell>
        <mxCell id="1yegsG9FxxA_bVlCOIYM-51" value="YA" style="text;html=1;strokeColor=none;fillColor=none;align=center;verticalAlign=middle;whiteSpace=wrap;rounded=0;" parent="1" vertex="1">
          <mxGeometry x="640" y="540" width="60" height="30" as="geometry" />
        </mxCell>
        <mxCell id="1yegsG9FxxA_bVlCOIYM-52" value="TIDAK" style="text;html=1;strokeColor=none;fillColor=none;align=center;verticalAlign=middle;whiteSpace=wrap;rounded=0;" parent="1" vertex="1">
          <mxGeometry x="230" y="610" width="60" height="30" as="geometry" />
        </mxCell>
        <mxCell id="1yegsG9FxxA_bVlCOIYM-53" value="TIDAK" style="text;html=1;strokeColor=none;fillColor=none;align=center;verticalAlign=middle;whiteSpace=wrap;rounded=0;" parent="1" vertex="1">
          <mxGeometry x="542.5" y="610" width="60" height="30" as="geometry" />
        </mxCell>
        <mxCell id="1yegsG9FxxA_bVlCOIYM-54" value="BAYU SEBASTIAN&lt;br&gt;220320001&lt;br&gt;TEKNIK INFORMATIKA&amp;nbsp;&lt;br&gt;SEMESTER 3" style="text;html=1;strokeColor=none;fillColor=none;align=center;verticalAlign=middle;whiteSpace=wrap;rounded=0;" parent="1" vertex="1">
          <mxGeometry x="50" y="50" width="160" height="80" as="geometry" />
        </mxCell>
        <mxCell id="bzbwZe6oU-pGhxdmffQD-2" value="" style="edgeStyle=orthogonalEdgeStyle;rounded=0;orthogonalLoop=1;jettySize=auto;html=1;" edge="1" parent="1" source="bzbwZe6oU-pGhxdmffQD-1" target="1yegsG9FxxA_bVlCOIYM-41">
          <mxGeometry relative="1" as="geometry" />
        </mxCell>
        <mxCell id="bzbwZe6oU-pGhxdmffQD-1" value="Pembeli menerima barang yang sudah dibeli" style="whiteSpace=wrap;html=1;" vertex="1" parent="1">
          <mxGeometry x="354" y="810" width="120" height="60" as="geometry" />
        </mxCell>
        <mxCell id="bzbwZe6oU-pGhxdmffQD-3" value="FLOWCHART&lt;br&gt;PENJUALAN" style="text;html=1;strokeColor=none;fillColor=none;align=center;verticalAlign=middle;whiteSpace=wrap;rounded=0;" vertex="1" parent="1">
          <mxGeometry x="610" y="50" width="160" height="80" as="geometry" />
        </mxCell>
        <mxCell id="bzbwZe6oU-pGhxdmffQD-4" value="" style="rounded=0;whiteSpace=wrap;html=1;fillColor=none;" vertex="1" parent="1">
          <mxGeometry x="40" y="30" width="760" height="940" as="geometry" />
        </mxCell>
      </root>
    </mxGraphModel>
  </diagram>
</mxfile>
